<svg width="33" height="26" viewBox="0 0 33 26" fill="none" xmlns="http://www.w3.org/2000/svg">
<path d="M9.40002 7.29572V12.5481C9.40002 14.9925 11.5352 16.9317 14.0459 16.6831L14.046 16.6831C16.264 16.4633 17.825 14.4757 17.825 12.3378V10.2043H25.1625C25.5552 10.2043 25.9005 10.5525 25.9021 10.9697C25.9021 10.9699 25.9021 10.9701 25.9021 10.9703L25.9021 13.4063C25.9021 13.7958 25.5789 14.125 25.1646 14.125H24.7521H24.2521V14.625V17.064C24.2521 18.1269 23.3751 19.0015 22.2771 19.0015H21.7771V19.5015C21.7771 21.0083 20.5257 22.2515 18.9771 22.2515H11.9336H11.8013L11.6863 22.317L6.3561 25.3504C6.35598 25.3505 6.35585 25.3506 6.35573 25.3506C5.8043 25.662 5.09479 25.4722 4.77708 24.9353C4.77695 24.9351 4.77681 24.9349 4.77668 24.9347L0.652599 17.8979L0.651621 17.8963C0.33967 17.3687 0.524587 16.6805 1.07309 16.3705L1.07468 16.3696L5.19968 14.0184L5.45208 13.8745V13.584C5.45208 11.1329 6.75694 8.86259 8.89127 7.59684L9.40002 7.29572ZM21.0685 3.74494H21.2008L21.3158 3.6795L26.646 0.646065C26.6461 0.64598 26.6463 0.645896 26.6464 0.645812C27.1978 0.334591 27.9071 0.524276 28.2248 1.06085C28.225 1.06117 28.2252 1.06149 28.2254 1.06181L32.3465 8.09788C32.6636 8.64083 32.4665 9.31087 31.9472 9.57659L31.9373 9.58167L31.9276 9.58719L28.55 11.5103V10.9231C28.55 9.06909 27.0263 7.57932 25.1625 7.57932H15.675H15.175V8.07932V12.5938C15.175 13.4338 14.4846 14.125 13.6125 14.125C12.7408 14.125 12.05 13.4342 12.05 12.5938V6.17502C12.05 5.79424 12.2503 5.43477 12.5833 5.22532C14.1628 4.25787 15.9834 3.74494 17.8422 3.74494H21.0685Z" stroke="white"/>
</svg>
