<svg width="30" height="32" viewBox="0 0 30 32" fill="none" xmlns="http://www.w3.org/2000/svg">
<g clip-path="url(#clip0_204_1856)">
<path d="M24.8937 16.5745H24.1927L22.3405 19.7619L20.4884 16.5745H19.7874L21.6596 19.7619H19.871V20.3414H22.0319V21.2107H19.871V21.7902H22.0319V22.9493H22.6492V21.7902H24.8101V21.2107H22.6492V20.3414H24.8101V19.7619H23.0215L24.8937 16.5745Z" fill="white"/>
<path d="M28.8618 19.7618C28.8618 22.9831 26.1089 25.6366 22.6597 25.6366C19.2105 25.6366 16.4576 22.9831 16.4576 19.7618C16.4576 16.5406 19.2105 13.8871 22.6597 13.8871C26.1089 13.8871 28.8618 16.5406 28.8618 19.7618Z" stroke="white"/>
</g>
<path d="M14.8715 9.66845C13.6485 9.66845 12.7295 9.05833 12.3531 8.07475H15.548V7.54352H12.2104C12.1807 7.3674 12.1658 7.18994 12.1657 7.01229C12.1657 6.92463 12.1691 6.83592 12.1745 6.74667H15.548V6.21544H12.2459C12.4515 5.24647 13.1161 4.35612 14.8715 4.35612C16.1747 4.35612 16.7426 4.79359 17.2824 5.54874L17.8722 5.28844C17.3287 4.52851 16.589 3.82489 14.8715 3.82489C12.7221 3.82489 11.4893 4.9867 11.4893 7.01229C11.4893 8.88887 12.88 10.1997 14.8715 10.1997C16.589 10.1997 17.3287 9.49633 17.8722 8.73614L17.2824 8.47583C16.7426 9.23125 16.1747 9.66845 14.8715 9.66845Z" fill="white"/>
<path d="M21.202 7.01224C21.202 10.2335 18.4491 12.887 14.9999 12.887C11.5507 12.887 8.79779 10.2335 8.79779 7.01224C8.79779 3.79098 11.5507 1.13745 14.9999 1.13745C18.4491 1.13745 21.202 3.79098 21.202 7.01224Z" stroke="white"/>
<g clip-path="url(#clip1_204_1856)">
<path d="M9.57446 21.5197C9.57446 20.0487 8.26832 19.8811 7.21892 19.7466C6.07518 19.5999 5.42799 19.4724 5.42799 18.564C5.42799 17.8016 6.29425 17.5307 7.03613 17.5307C7.40584 17.5197 7.77309 17.5899 8.1076 17.7355C8.44212 17.8811 8.73431 18.098 8.96009 18.3683L9.49775 17.968C9.25596 17.6812 8.9551 17.4413 8.61247 17.2621C8.26984 17.0829 7.89218 16.9679 7.50122 16.9238V15.937H6.81015V16.9002C5.56102 16.9703 4.73691 17.6206 4.73691 18.564C4.73691 20.0717 6.06032 20.2416 7.12355 20.3777C8.24759 20.522 8.88338 20.646 8.88338 21.5197C8.88338 22.4861 7.80081 22.6305 7.15568 22.6305C5.97048 22.6305 5.47014 22.3232 5.00574 21.7929L4.46808 22.1932C4.74201 22.5262 5.09631 22.7957 5.50285 22.9803C5.9094 23.1649 6.35701 23.2596 6.81015 23.2568V24.2242H7.50122V23.2536C8.7887 23.1568 9.57446 22.5119 9.57446 21.5197Z" fill="white"/>
<path d="M12.9043 19.7618C12.9043 23.0058 10.271 25.6366 7.02128 25.6366C3.7716 25.6366 1.13831 23.0058 1.13831 19.7618C1.13831 16.5179 3.7716 13.8871 7.02128 13.8871C10.271 13.8871 12.9043 16.5179 12.9043 19.7618Z" stroke="white"/>
</g>
<path d="M2.50232 12.1121C1.286 10.0668 1.58727 5.68418 7.02124 5.68418M7.02124 5.68418L5.51495 5.09982M7.02124 5.68418L5.81621 6.56071" stroke="white"/>
<path d="M18.5305 26.5155C17.6577 28.7288 14.0054 31.177 10.6752 26.8886M10.6752 26.8886L11.136 28.4354M10.6752 26.8886L12.1072 27.3024" stroke="white"/>
<path d="M22.6852 5.60792C25.0668 5.57854 28.7166 8.03045 25.9996 12.7304M25.9996 12.7304L27.2595 11.7197M25.9996 12.7304L25.842 11.2499" stroke="white"/>
<defs>
<clipPath id="clip0_204_1856">
<rect width="14.0426" height="14.0245" fill="white" transform="translate(15.9576 12.7496)"/>
</clipPath>
<clipPath id="clip1_204_1856">
<rect width="14.0426" height="14.0245" fill="white" transform="translate(0 12.7496)"/>
</clipPath>
</defs>
</svg>
