<svg width="74" height="40" viewBox="0 0 74 40" fill="none" xmlns="http://www.w3.org/2000/svg">
<line x1="2" y1="16.5" x2="33.7442" y2="16.5" stroke="#7000FF"/>
<path d="M0 0.459999H2.34L4.3 12.24H4.72L7.32 0.5H9.92L12.52 12.24H12.96L14.92 0.459999H17.26L14.56 14.16H10.98L8.62 3.18L6.28 14.16H2.68L0 0.459999Z" fill="white"/>
<path d="M25.792 12.36L26.352 12.3L26.392 13.92C24.872 14.2267 23.5254 14.38 22.352 14.38C20.872 14.38 19.8054 13.9733 19.152 13.16C18.512 12.3467 18.192 11.0467 18.192 9.26C18.192 5.71333 19.6387 3.94 22.532 3.94C25.332 3.94 26.732 5.46667 26.732 8.52L26.592 10.08H20.392C20.4054 10.9067 20.5854 11.5133 20.932 11.9C21.2787 12.2867 21.9254 12.48 22.872 12.48C23.8187 12.48 24.792 12.44 25.792 12.36ZM24.592 8.4C24.592 7.41333 24.432 6.72667 24.112 6.34C23.8054 5.94 23.2787 5.74 22.532 5.74C21.7854 5.74 21.2387 5.94667 20.892 6.36C20.5587 6.77333 20.3854 7.45333 20.372 8.4H24.592Z" fill="white"/>
<path d="M28.9483 14.16V0H31.1283V14.16H28.9483Z" fill="white"/>
<path d="M34.0069 14.16V0H36.1869V14.16H34.0069Z" fill="white"/>
<path d="M43.8055 14.38C41.8055 14.38 40.4455 13.8267 39.7255 12.72C39.0188 11.6133 38.6655 9.79333 38.6655 7.26C38.6655 4.72667 39.0255 2.92667 39.7455 1.86C40.4655 0.779999 41.8188 0.239999 43.8055 0.239999C44.9921 0.239999 46.2988 0.406666 47.7255 0.74L47.6455 2.54C46.4455 2.32667 45.2455 2.22 44.0455 2.22C42.8455 2.22 42.0321 2.58 41.6055 3.3C41.1788 4.00667 40.9655 5.34667 40.9655 7.32C40.9655 9.28 41.1721 10.62 41.5855 11.34C41.9988 12.0467 42.8055 12.4 44.0055 12.4C45.2055 12.4 46.4188 12.3 47.6455 12.1L47.7055 13.94C46.3321 14.2333 45.0321 14.38 43.8055 14.38Z" fill="white"/>
<path d="M50.1886 5.24C50.8819 4.37333 52.0286 3.94 53.6286 3.94C55.2286 3.94 56.3686 4.37333 57.0486 5.24C57.7419 6.10667 58.0886 7.40667 58.0886 9.14C58.0886 10.8733 57.7553 12.18 57.0886 13.06C56.4219 13.94 55.2686 14.38 53.6286 14.38C51.9886 14.38 50.8353 13.94 50.1686 13.06C49.5019 12.18 49.1686 10.8733 49.1686 9.14C49.1686 7.40667 49.5086 6.10667 50.1886 5.24ZM51.8286 11.74C52.1353 12.2733 52.7353 12.54 53.6286 12.54C54.5219 12.54 55.1219 12.2733 55.4286 11.74C55.7353 11.2067 55.8886 10.3333 55.8886 9.12C55.8886 7.90667 55.7219 7.04667 55.3886 6.54C55.0686 6.03333 54.4819 5.78 53.6286 5.78C52.7753 5.78 52.1819 6.03333 51.8486 6.54C51.5286 7.04667 51.3686 7.90667 51.3686 9.12C51.3686 10.3333 51.5219 11.2067 51.8286 11.74Z" fill="white"/>
<path d="M60.2541 14.16V4.16H62.4341V14.16H60.2541ZM60.2541 2.46V0.159999H62.4341V2.46H60.2541Z" fill="white"/>
<path d="M67.2583 14.16H65.0783V4.16H67.2383V4.78C68.2116 4.22 69.1316 3.94 69.9983 3.94C71.3316 3.94 72.2383 4.32 72.7183 5.08C73.2116 5.82667 73.4583 7.06667 73.4583 8.8V14.16H71.2983V8.86C71.2983 7.78 71.1783 7.01333 70.9383 6.56C70.7116 6.10667 70.2383 5.88 69.5183 5.88C68.8383 5.88 68.1849 6.01333 67.5583 6.28L67.2583 6.4V14.16Z" fill="white"/>
<g filter="url(#filter0_b_2154_57)">
<path d="M7.66 29.18V28.68V26.72V26.22H8.16H12.06H12.56V26.72V33.68V34.0669L12.1855 34.164C11.781 34.2689 11.0083 34.3716 9.90855 34.4776C9.90836 34.4777 9.90816 34.4777 9.90797 34.4777L9.86 33.98L7.66 29.18ZM7.66 29.18H8.16M7.66 29.18H8.16M8.16 29.18H9.36M8.16 29.18H9.36M9.36 29.18V31.6072C8.94953 31.6669 8.39349 31.7 7.68 31.7C6.39183 31.7 5.70727 31.3536 5.38804 30.8415C5.02451 30.2204 4.8 28.9983 4.8 27.06C4.8 26.1042 4.85747 25.315 4.96752 24.6862C5.07819 24.0538 5.23675 23.6153 5.41783 23.3347L9.36 29.18ZM14.0856 33.92V34.42H14.5856H16.7656H17.2656V33.92V27.2757L17.3949 27.2228L17.4015 27.2201L17.408 27.2172C18.1789 26.876 19.1216 26.5921 20.2426 26.3705L20.6456 26.2908V25.88V23.7V23.0971L20.0531 23.2086C19.1088 23.3864 18.1728 23.7322 17.2456 24.2395V23.92V23.42H16.7456H14.5856H14.0856V23.92V33.92ZM21.8836 24.6877L21.8807 24.6914C21.1019 25.6839 20.7541 27.1149 20.7541 28.9C20.7541 30.6843 21.095 32.118 21.8555 33.1219C22.6559 34.1784 23.9965 34.64 25.7141 34.64C27.4317 34.64 28.7722 34.1784 29.5726 33.1219C30.3332 32.118 30.6741 30.6843 30.6741 28.9C30.6741 27.1144 30.3193 25.6825 29.526 24.6895C28.714 23.656 27.3943 23.2 25.7141 23.2C24.032 23.2 22.7083 23.6569 21.8836 24.6877ZM27.0513 26.567L27.0512 26.567L27.0564 26.5748C27.3043 26.9517 27.4741 27.6837 27.4741 28.88C27.4741 30.0757 27.3186 30.8368 27.0806 31.2508C26.9001 31.5647 26.5176 31.8 25.7141 31.8C24.9105 31.8 24.528 31.5647 24.3475 31.2508C24.1095 30.8368 23.9541 30.0757 23.9541 28.88C23.9541 27.6862 24.1162 26.9513 24.3543 26.571C24.5613 26.2595 24.9575 26.04 25.7141 26.04C26.4753 26.04 26.8585 26.2618 27.0513 26.567ZM38.3995 23.42H37.8995V23.92V31.3417L37.8965 31.3431C37.3663 31.5787 36.7764 31.7 36.1195 31.7C35.4528 31.7 35.2428 31.5135 35.1696 31.3622C35.105 31.2288 35.0383 30.9876 34.9907 30.6035C34.9441 30.2277 34.9195 29.7481 34.9195 29.16V23.92V23.42H34.4195H32.2395H31.7395V23.92V29.14C31.7395 31.0041 31.9685 32.4298 32.5155 33.305L32.5155 33.305L32.5177 33.3084C33.1206 34.2558 34.2588 34.64 35.6995 34.64C36.408 34.64 37.1426 34.4594 37.8995 34.1185V34.42H38.3995H40.5595H41.0595V33.92V23.92V23.42H40.5595H38.3995ZM42.6989 38.22V38.72H43.1989H45.3789H45.8789V38.22V34.5399C46.3874 34.6061 46.8545 34.64 47.2789 34.64C48.9317 34.64 50.2407 34.2386 51.0695 33.3157C51.9051 32.3999 52.2589 30.9064 52.2589 28.98C52.2589 27.0487 51.9539 25.5536 51.2367 24.6171C50.5019 23.6441 49.3641 23.2 47.9389 23.2C47.2615 23.2 46.5669 23.3748 45.8589 23.7041V23.42H45.3589H43.1989H42.6989V23.92V38.22ZM45.8789 26.5184L45.8865 26.5149C46.4539 26.2619 47.0102 26.14 47.5589 26.14C48.0581 26.14 48.3869 26.3257 48.6195 26.6993C48.8765 27.1122 49.0389 27.7957 49.0389 28.82C49.0389 30.0565 48.8624 30.8134 48.6029 31.2027C48.3863 31.5276 47.9593 31.76 47.1389 31.76C46.6869 31.76 46.2671 31.7322 45.8789 31.6778V26.5184Z" stroke="#FFFCFC"/>
</g>
<defs>
<filter id="filter0_b_2154_57" x="-3" y="15" width="59.7589" height="28.2202" filterUnits="userSpaceOnUse" color-interpolation-filters="sRGB">
<feFlood flood-opacity="0" result="BackgroundImageFix"/>
<feGaussianBlur in="BackgroundImageFix" stdDeviation="2"/>
<feComposite in2="SourceAlpha" operator="in" result="effect1_backgroundBlur_2154_57"/>
<feBlend mode="normal" in="SourceGraphic" in2="effect1_backgroundBlur_2154_57" result="shape"/>
</filter>
</defs>
</svg>
