<svg width="38" height="38" viewBox="0 0 38 38" fill="none" xmlns="http://www.w3.org/2000/svg">
<path d="M32.211 20.2432L19.8944 6.04883C19.783 5.92039 19.6454 5.81738 19.4908 5.74678C19.3361 5.67619 19.1681 5.63965 18.9982 5.63965C18.8282 5.63965 18.6602 5.67619 18.5056 5.74678C18.3509 5.81738 18.2133 5.92039 18.102 6.04883L5.78908 20.2432C5.75187 20.2859 5.72775 20.3385 5.71958 20.3946C5.71141 20.4507 5.71954 20.508 5.743 20.5596C5.76646 20.6112 5.80427 20.655 5.85191 20.6858C5.89956 20.7165 5.95504 20.7329 6.01174 20.733H9.0176C9.1883 20.733 9.35158 20.6588 9.46662 20.5289L17.5899 11.1662V32.0625C17.5899 32.2258 17.7235 32.3594 17.8867 32.3594H20.1133C20.2766 32.3594 20.4102 32.2258 20.4102 32.0625V11.1662L28.5334 20.5289C28.6448 20.6588 28.808 20.733 28.9824 20.733H31.9883C32.2407 20.733 32.378 20.4361 32.211 20.2432Z" fill="#D46BFE"/>
</svg>
