<svg width="277" height="258" viewBox="0 0 277 258" fill="none" xmlns="http://www.w3.org/2000/svg">
<g filter="url(#filter0_f_204_1618)">
<ellipse cx="167.22" cy="147.562" rx="26.6614" ry="26.6614" transform="rotate(46.5728 167.22 147.562)" fill="#DA7EFF" fill-opacity="0.4"/>
</g>
<g filter="url(#filter1_ii_204_1618)">
<circle cx="167.238" cy="146.925" r="32" transform="rotate(46.5729 167.238 146.925)" fill="#53199C"/>
</g>
<g filter="url(#filter2_f_204_1618)">
<circle cx="9.33333" cy="9.33333" r="9.33333" transform="matrix(0.687432 0.726249 -0.72625 0.687431 182.628 136.03)" fill="#8744DD"/>
</g>
<circle cx="83.079" cy="140.136" r="11" transform="rotate(46.5729 83.079 140.136)" fill="#191931"/>
<circle cx="11" cy="11" r="11" transform="matrix(0.68743 0.726251 -0.726248 0.687433 27.1398 42.6782)" fill="#191931"/>
<circle cx="11" cy="11" r="11" transform="matrix(0.687431 0.72625 -0.726248 0.687433 62.568 9.14355)" fill="#191931"/>
<line x1="66.5613" y1="36.0496" x2="73.8779" y2="62.2492" stroke="#434363"/>
<line y1="-0.5" x2="21.8489" y2="-0.5" transform="matrix(0.91952 0.393043 -0.39305 0.919517 36.9606 63.7468)" stroke="#434363"/>
<line x1="82.8803" y1="129.372" x2="78.9869" y2="99.0125" stroke="#434363"/>
<circle cx="75.254" cy="80.8027" r="20" transform="rotate(46.5729 75.254 80.8027)" fill="#F2BB9E"/>
<circle cx="14" cy="14" r="14" transform="matrix(0.687431 0.72625 -0.726249 0.687432 75.5133 61.6873)" fill="#191931"/>
<line y1="-0.5" x2="60.616" y2="-0.5" transform="matrix(0.843047 0.537839 -0.537838 0.843048 91.0787 89.8135)" stroke="url(#paint0_linear_204_1618)"/>
<defs>
<filter id="filter0_f_204_1618" x="57.5585" y="37.9004" width="219.323" height="219.323" filterUnits="userSpaceOnUse" color-interpolation-filters="sRGB">
<feFlood flood-opacity="0" result="BackgroundImageFix"/>
<feBlend mode="normal" in="SourceGraphic" in2="BackgroundImageFix" result="shape"/>
<feGaussianBlur stdDeviation="41.5" result="effect1_foregroundBlur_204_1618"/>
</filter>
<filter id="filter1_ii_204_1618" x="135.238" y="114.925" width="66.0002" height="66" filterUnits="userSpaceOnUse" color-interpolation-filters="sRGB">
<feFlood flood-opacity="0" result="BackgroundImageFix"/>
<feBlend mode="normal" in="SourceGraphic" in2="BackgroundImageFix" result="shape"/>
<feColorMatrix in="SourceAlpha" type="matrix" values="0 0 0 0 0 0 0 0 0 0 0 0 0 0 0 0 0 0 127 0" result="hardAlpha"/>
<feOffset dx="2" dy="2"/>
<feGaussianBlur stdDeviation="4"/>
<feComposite in2="hardAlpha" operator="arithmetic" k2="-1" k3="1"/>
<feColorMatrix type="matrix" values="0 0 0 0 0.831373 0 0 0 0 0.419608 0 0 0 0 0.996078 0 0 0 0.66 0"/>
<feBlend mode="normal" in2="shape" result="effect1_innerShadow_204_1618"/>
<feColorMatrix in="SourceAlpha" type="matrix" values="0 0 0 0 0 0 0 0 0 0 0 0 0 0 0 0 0 0 127 0" result="hardAlpha"/>
<feOffset dx="1" dy="1"/>
<feGaussianBlur stdDeviation="2"/>
<feComposite in2="hardAlpha" operator="arithmetic" k2="-1" k3="1"/>
<feColorMatrix type="matrix" values="0 0 0 0 0.831373 0 0 0 0 0.419608 0 0 0 0 0.996078 0 0 0 0.36 0"/>
<feBlend mode="normal" in2="effect1_innerShadow_204_1618" result="effect2_innerShadow_204_1618"/>
</filter>
<filter id="filter2_f_204_1618" x="144.932" y="111.891" width="74.6667" height="74.6665" filterUnits="userSpaceOnUse" color-interpolation-filters="sRGB">
<feFlood flood-opacity="0" result="BackgroundImageFix"/>
<feBlend mode="normal" in="SourceGraphic" in2="BackgroundImageFix" result="shape"/>
<feGaussianBlur stdDeviation="14" result="effect1_foregroundBlur_204_1618"/>
</filter>
<linearGradient id="paint0_linear_204_1618" x1="60.616" y1="0.000151784" x2="-3.65687" y2="0.682209" gradientUnits="userSpaceOnUse">
<stop stop-color="#53199C"/>
<stop offset="1" stop-color="#F2BB9E"/>
</linearGradient>
</defs>
</svg>
