<svg width="823" height="481" viewBox="0 0 823 481" fill="none" xmlns="http://www.w3.org/2000/svg">
<path d="M804.441 259.903L820.052 213.413C820.413 212.339 822 212.598 822 213.731V479.102C822 479.654 821.552 480.102 821 480.102H2.49335C1.94106 480.102 1.49335 479.654 1.49335 479.102V419.747C1.49335 419.616 1.51906 419.486 1.56902 419.365L21.7301 370.529L36.3872 330.326C36.4272 330.216 36.4477 330.101 36.4477 329.984V278.563C36.4477 277.338 38.228 277.187 38.4335 278.395L43.6649 309.144C43.7466 309.624 44.1631 309.976 44.6507 309.976H59.4452C59.9647 309.976 60.3976 309.578 60.4416 309.061L63.9653 267.639C64.0094 267.121 64.4423 266.723 64.9617 266.723H81.4402C81.9925 266.723 82.4402 266.276 82.4402 265.723V212.217C82.4402 211.143 83.9044 210.825 84.3502 211.803L91.372 227.211C91.5344 227.567 91.8901 227.796 92.2819 227.796H107.478C107.907 227.796 108.288 227.523 108.426 227.116L124.524 179.457C124.661 179.05 125.042 178.777 125.471 178.777H147.95C148.38 178.777 148.762 178.502 148.898 178.095L157.352 152.92C157.589 152.215 158.486 152.006 159.01 152.534L169.618 163.223C170.139 163.747 171.029 163.545 171.272 162.847L180.968 134.987C181.264 134.136 182.445 134.08 182.821 134.898L197.526 166.91C197.866 167.651 198.903 167.695 199.305 166.986L211.854 144.859C212.295 144.08 213.459 144.229 213.689 145.094L228.466 200.421C228.741 201.452 230.224 201.392 230.416 200.342L236.698 165.877C236.828 165.164 237.65 164.822 238.248 165.232L251.293 174.177C251.545 174.351 251.705 174.63 251.725 174.935L257.149 255.698C257.184 256.223 257.621 256.631 258.147 256.631H267.25C267.802 256.631 268.25 257.079 268.25 257.631V280.598C268.25 281.598 269.555 281.979 270.093 281.136L277.654 269.285C278.173 268.472 279.429 268.792 279.495 269.755L286.103 366.858C286.183 368.033 287.873 368.128 288.084 366.97L302.782 286.342C302.94 285.474 304.063 285.221 304.578 285.938L318.746 305.678C319.196 306.305 320.157 306.207 320.472 305.502L331.245 281.38C331.653 280.467 332.999 280.651 333.147 281.639L343.281 349.147C343.419 350.061 344.616 350.315 345.113 349.536L353.384 336.574C353.867 335.815 355.029 336.032 355.207 336.914L382.961 474.217C383.185 475.324 384.786 475.269 384.933 474.149L397.029 382.063L429.952 253.059C430.065 252.616 430.464 252.306 430.921 252.306H451.22C451.772 252.306 452.22 251.858 452.22 251.306V237.166C452.22 236.736 452.494 236.355 452.902 236.218L464.416 232.35C464.824 232.214 465.098 231.832 465.098 231.402V165.359C465.098 164.807 465.546 164.359 466.098 164.359H478.947C479.445 164.359 479.868 163.993 479.938 163.5L486.752 115.438C486.887 114.485 488.158 114.254 488.619 115.098L492.223 121.688C492.484 122.166 493.08 122.347 493.563 122.094L502.623 117.361C503.192 117.064 503.888 117.371 504.053 117.99L512.776 150.804C512.871 151.161 513.155 151.436 513.514 151.521L530.364 155.482C530.898 155.608 531.433 155.28 531.564 154.748L551.194 75.0316C551.368 74.3268 552.211 74.0359 552.782 74.4836L566.135 84.948C566.232 85.0241 566.314 85.1175 566.377 85.2235L577.933 104.629C578.387 105.393 579.537 105.228 579.76 104.368L606.295 1.78025C606.493 1.01286 607.463 0.77041 607.999 1.35411L638.621 34.6844C639.158 35.2691 640.13 35.0245 640.326 34.2551L648.247 3.21897C648.492 2.25867 649.834 2.20156 650.16 3.13758L665.276 46.5738C665.465 47.118 666.074 47.39 666.606 47.1678L692.296 36.4304C692.806 36.217 693.379 36.4217 693.583 36.9361C712.178 83.8171 706.127 229.132 700.664 297.392C700.618 297.974 701.08 298.442 701.664 298.442H714.297C714.85 298.442 715.297 297.994 715.297 297.442V257.631C715.297 257.079 715.745 256.631 716.297 256.631H738.214C738.766 256.631 739.214 256.183 739.214 255.631V182.567C739.214 181.54 740.577 181.18 741.083 182.074L753.815 204.524C753.891 204.658 753.935 204.809 753.944 204.963L757.179 264.55C757.243 265.724 758.93 265.844 759.159 264.69L768.508 217.591C768.743 216.406 770.488 216.577 770.488 217.786V358.452C770.488 359.452 771.794 359.833 772.331 358.99L785.064 339.033C785.157 338.887 785.211 338.72 785.22 338.547L790.501 236.447C790.556 235.387 792.005 235.131 792.42 236.107L802.573 259.976C802.933 260.822 804.148 260.775 804.441 259.903Z" fill="url(#paint0_linear_204_1438)"/>
<path d="M822 207.612L804.441 259.903C804.148 260.775 802.933 260.822 802.573 259.976L792.42 236.107C792.005 235.131 790.556 235.387 790.501 236.447L785.22 338.547C785.211 338.72 785.157 338.887 785.064 339.033L772.331 358.99C771.794 359.833 770.488 359.452 770.488 358.452V217.786C770.488 216.577 768.743 216.406 768.508 217.591L759.159 264.69C758.93 265.844 757.243 265.724 757.179 264.55L753.944 204.963C753.935 204.809 753.891 204.658 753.815 204.524L741.083 182.074C740.577 181.18 739.213 181.54 739.213 182.567V255.631C739.213 256.183 738.766 256.631 738.213 256.631H716.297C715.745 256.631 715.297 257.079 715.297 257.631V297.442C715.297 297.994 714.85 298.442 714.297 298.442H701.664C701.08 298.442 700.618 297.974 700.664 297.392C706.127 229.132 712.178 83.8171 693.583 36.9361C693.379 36.4217 692.806 36.217 692.296 36.4304L666.606 47.1678C666.074 47.39 665.465 47.118 665.276 46.5738L650.16 3.13758C649.834 2.20156 648.492 2.25867 648.247 3.21897L640.326 34.2551C640.13 35.0245 639.158 35.2691 638.621 34.6844L607.999 1.35411C607.463 0.77041 606.493 1.01286 606.295 1.78025L579.76 104.368C579.537 105.228 578.387 105.393 577.933 104.629L566.377 85.2235C566.314 85.1175 566.232 85.0241 566.135 84.948L552.782 74.4836C552.211 74.0358 551.368 74.3268 551.194 75.0316L531.564 154.748C531.433 155.28 530.898 155.608 530.364 155.482L513.514 151.521C513.155 151.436 512.871 151.161 512.776 150.804L504.053 117.99C503.888 117.371 503.192 117.064 502.623 117.361L493.563 122.094C493.08 122.347 492.484 122.166 492.223 121.688L488.619 115.098C488.158 114.254 486.887 114.485 486.752 115.438L479.937 163.5C479.868 163.993 479.445 164.359 478.947 164.359H466.098C465.546 164.359 465.098 164.807 465.098 165.359V231.402C465.098 231.832 464.824 232.214 464.416 232.35L452.902 236.218C452.494 236.355 452.22 236.736 452.22 237.166V251.306C452.22 251.858 451.772 252.306 451.22 252.306H430.921C430.463 252.306 430.065 252.616 429.952 253.059L397.029 382.063L384.933 474.149C384.786 475.269 383.185 475.324 382.961 474.217L355.207 336.914C355.029 336.032 353.867 335.815 353.384 336.574L345.113 349.536C344.616 350.315 343.419 350.061 343.281 349.147L333.147 281.639C332.999 280.651 331.653 280.467 331.245 281.38L320.472 305.502C320.157 306.207 319.196 306.305 318.746 305.678L304.578 285.938C304.063 285.221 302.94 285.474 302.782 286.342L288.084 366.97C287.873 368.128 286.183 368.033 286.103 366.858L279.495 269.755C279.429 268.792 278.173 268.472 277.654 269.285L270.093 281.136C269.555 281.979 268.25 281.598 268.25 280.598V257.631C268.25 257.079 267.802 256.631 267.25 256.631H258.147C257.621 256.631 257.184 256.223 257.149 255.698L251.725 174.935C251.705 174.63 251.545 174.351 251.293 174.177L238.248 165.232C237.65 164.822 236.828 165.164 236.698 165.877L230.416 200.342C230.224 201.392 228.741 201.452 228.466 200.421L213.689 145.094C213.459 144.229 212.295 144.08 211.854 144.859L199.305 166.986C198.903 167.695 197.866 167.651 197.526 166.91L182.821 134.898C182.445 134.08 181.264 134.136 180.968 134.987L171.272 162.847C171.029 163.545 170.139 163.747 169.618 163.223L159.01 152.534C158.486 152.006 157.589 152.215 157.352 152.92L148.898 178.095C148.762 178.502 148.38 178.777 147.95 178.777H125.471C125.042 178.777 124.661 179.05 124.524 179.457L108.426 227.116C108.288 227.523 107.907 227.796 107.478 227.796H92.2819C91.8901 227.796 91.5344 227.567 91.372 227.211L84.3502 211.803C83.9044 210.825 82.4402 211.143 82.4402 212.217V265.723C82.4402 266.276 81.9925 266.723 81.4402 266.723H64.9617C64.4423 266.723 64.0094 267.121 63.9653 267.639L60.4416 309.061C60.3976 309.578 59.9647 309.976 59.4452 309.976H44.6507C44.1631 309.976 43.7466 309.624 43.6649 309.144L38.4335 278.395C38.228 277.187 36.4477 277.338 36.4477 278.563V329.984C36.4477 330.101 36.4272 330.216 36.3872 330.326L21.7301 370.529L1.49335 419.549" stroke="#D46BFE" stroke-width="2"/>
<defs>
<linearGradient id="paint0_linear_204_1438" x1="411.747" y1="-221.051" x2="411.747" y2="480.102" gradientUnits="userSpaceOnUse">
<stop stop-color="#D46BFE"/>
<stop offset="1" stop-color="#282838" stop-opacity="0"/>
<stop offset="1" stop-color="#C4C4C4" stop-opacity="0"/>
</linearGradient>
</defs>
</svg>
